<svg width="37" height="20" viewBox="0 0 37 20" fill="none" xmlns="http://www.w3.org/2000/svg">
<path fill-rule="evenodd" clip-rule="evenodd" d="M10.008 0C4.48072 0 0 4.47715 0 10C0 15.5228 4.48072 20 10.008 20C12.7711 20 15.2754 18.8789 17.0847 17.0711L14.7258 14.714C13.5166 15.9223 11.8508 16.6667 10.008 16.6667C6.32313 16.6667 3.33599 13.6819 3.33599 10C3.33599 6.3181 6.32313 3.33333 10.008 3.33333C13.6928 3.33333 16.6799 6.3181 16.6799 10C16.6799 15.5228 21.1607 20 26.6879 20C28.8486 20 30.851 19.3145 32.4866 18.1511L33.8484 19.5118L36.2073 17.1548L32.5852 13.5355L31.4057 14.714C30.1965 15.9223 28.5308 16.6667 26.6879 16.6667C23.0031 16.6667 20.0159 13.6819 20.0159 10C20.0159 6.3181 23.0031 3.33333 26.6879 3.33333C30.3727 3.33333 33.3599 6.3181 33.3599 10H36.6959C36.6959 4.47715 32.2152 0 26.6879 0C23.2069 0 20.1409 1.77585 18.3479 4.47034C16.555 1.77585 13.489 0 10.008 0Z" fill="#F7F9FA"/>
</svg>
